<svg width="36" height="36" viewBox="0 0 36 36" fill="none" xmlns="http://www.w3.org/2000/svg">
<g clip-path="url(#clip0_153_11)">
<path d="M19.0504 1.99982C16.6138 1.99089 14.2689 2.88953 12.5104 4.50615C10.752 6.12276 9.71753 8.33089 9.62534 10.6646C9.58861 14.2406 11.2387 17.7406 15.3194 19.407C17.7692 20.415 22.0936 21.1494 22.021 24.8654C21.9584 27.8182 18.3301 30.0262 14.9146 30.0262H9.04775V13.791H4.19166V6.03501H9.04775V2.00062H-0.00170898V17.8254H4.85606V34.0006H16.1491C21.6061 34.0006 26.4213 29.8054 26.4581 24.5854C26.4864 19.967 22.6703 17.5926 18.0079 16.1246C15.0089 15.187 13.7778 13.075 13.8538 10.7574C13.9444 9.50285 14.5179 8.32529 15.4632 7.45314C16.4085 6.581 17.658 6.07646 18.9694 6.03742H31.8775V13.5734H35.9991V2.00302L19.0504 1.99982Z" fill="white"/>
<path d="M28.0606 11.5407C26.0444 10.2482 23.7326 9.44111 21.3215 9.18794H21.3148C21.2314 9.18154 21.1579 9.17114 21.0753 9.17114C20.5257 9.17178 19.9989 9.38124 19.6102 9.7536C19.2216 10.126 19.0028 10.6308 19.002 11.1575C19.0018 11.4584 19.0733 11.7553 19.211 12.0256C19.3487 12.296 19.549 12.5326 19.7966 12.7175C20.2795 13.0372 20.8249 13.2598 21.4 13.3719C26.4505 14.6431 30.5679 19.1735 30.8534 23.3799C31.0302 25.3708 30.7006 27.3731 29.8929 29.2151C29.0852 31.0571 27.8235 32.6838 26.216 33.9559H31.4418C33.7505 31.8095 35.2746 28.1959 35.1795 23.5855C35.0741 21.1805 34.3737 18.8339 33.1361 16.7393C31.8985 14.6446 30.1591 12.862 28.0614 11.5383" fill="white"/>
</g>
<defs>
<clipPath id="clip0_153_11">
<rect width="36" height="32" fill="white" transform="translate(0 2)"/>
</clipPath>
</defs>
</svg>
