<svg width="36" height="36" viewBox="0 0 36 36" fill="none" xmlns="http://www.w3.org/2000/svg">
<g clip-path="url(#clip0_153_57)">
<path d="M18.4669 11C17.3839 10.9961 16.3418 11.3893 15.5602 12.0965C14.7787 12.8038 14.3189 13.7699 14.278 14.7909C14.2616 16.3554 14.995 17.8866 16.8087 18.6157C17.8974 19.0567 19.8194 19.378 19.7871 21.0037C19.7593 22.2956 18.1467 23.2616 16.6287 23.2616H14.0212V16.1587H11.863V12.7654H14.0212V11.0004H9.99927V17.9237H12.1583V25.0004H17.1774C19.6028 25.0004 21.7428 23.165 21.7592 20.8812C21.7718 18.8607 20.0757 17.8219 18.0035 17.1796C16.6707 16.7694 16.1235 15.8454 16.1573 14.8315C16.1975 14.2826 16.4524 13.7674 16.8726 13.3859C17.2927 13.0043 17.848 12.7836 18.4309 12.7665H24.1678V16.0635H25.9996V11.0014L18.4669 11Z" fill="white"/>
<path d="M22.4714 15.1742C21.5753 14.6087 20.5478 14.2556 19.4762 14.1448H19.4733C19.4362 14.142 19.4035 14.1375 19.3668 14.1375C19.1225 14.1377 18.8884 14.2294 18.7157 14.3923C18.5429 14.5552 18.4457 14.7761 18.4453 15.0065C18.4453 15.1381 18.477 15.268 18.5382 15.3863C18.5994 15.5046 18.6884 15.6081 18.7985 15.689C19.0131 15.8288 19.2555 15.9262 19.5111 15.9753C21.7558 16.5315 23.5857 18.5135 23.7126 20.3538C23.7912 21.2248 23.6447 22.1008 23.2857 22.9067C22.9268 23.7125 22.366 24.4243 21.6515 24.9808H23.9741C25.0002 24.0418 25.6776 22.4608 25.6353 20.4438C25.5885 19.3915 25.2772 18.3649 24.7272 17.4485C24.1771 16.5321 23.4041 15.7522 22.4717 15.1731" fill="white"/>
</g>
<defs>
<clipPath id="clip0_153_57">
<rect width="16" height="14" fill="white" transform="translate(10 11)"/>
</clipPath>
</defs>
</svg>
