<svg width="36" height="36" viewBox="0 0 36 36" fill="none" xmlns="http://www.w3.org/2000/svg">
<g clip-path="url(#clip0_153_38)">
<path d="M29.25 17.591C29.234 17.8195 29.2046 18.047 29.162 18.2721C29.0197 19.1341 28.7283 19.9647 28.3009 20.7267C28.0964 21.0907 27.1125 22.4735 26.8118 22.8376C25.1489 24.8401 22.363 27.1514 17.7075 29.3994C17.6093 29.4468 17.5002 29.4672 17.3915 29.4585C17.2827 29.4498 17.1783 29.4122 17.0889 29.3497C16.9995 29.2872 16.9284 29.202 16.8829 29.1029C16.8374 29.0037 16.8191 28.8943 16.83 28.7857L17.0652 26.6728C17.083 26.5112 17.0359 26.3491 16.9343 26.2221C16.8327 26.0952 16.6848 26.0137 16.5232 25.9957C14.9744 25.8408 13.4658 25.4107 12.0682 24.7255C8.87727 23.1485 6.75 20.3319 6.75 17.1226C6.75 12.1807 11.7859 8.18188 18 8.18188C21.1214 8.18188 23.9441 9.20461 25.9773 10.8267C27.8816 12.3505 29.1007 14.4185 29.2316 16.7135C29.2534 17.0054 29.2596 17.2984 29.25 17.591Z" fill="#D9D9D9"/>
<path d="M14.8991 19.1027C14.9535 19.1559 14.9966 19.2196 15.0257 19.2899C15.0549 19.3602 15.0696 19.4357 15.0688 19.5118C15.0691 19.5875 15.0544 19.6624 15.0257 19.7324C14.9969 19.8024 14.9546 19.866 14.9012 19.9196C14.8478 19.9732 14.7844 20.0157 14.7145 20.0447C14.6446 20.0737 14.5697 20.0886 14.4941 20.0886H12.1929C12.0401 20.0881 11.8937 20.0272 11.7856 19.9191C11.6776 19.811 11.6166 19.6646 11.6161 19.5118V15.1652C11.6156 15.0891 11.6304 15.0137 11.6595 14.9435C11.6887 14.8732 11.7316 14.8095 11.7859 14.7561C11.8664 14.6754 11.9691 14.6204 12.0809 14.5982C12.1928 14.576 12.3087 14.5875 12.414 14.6314C12.5193 14.6752 12.6091 14.7494 12.6721 14.8445C12.7351 14.9395 12.7683 15.0512 12.7677 15.1652V18.935H14.4941C14.5694 18.9344 14.644 18.949 14.7136 18.9778C14.7831 19.0066 14.8462 19.0491 14.8991 19.1027Z" fill="#7B7B7B"/>
<path d="M16.7727 15.0403V19.6365C16.7722 19.7557 16.7246 19.8698 16.6403 19.9541C16.556 20.0384 16.4419 20.0859 16.3227 20.0865H16.065C15.9456 20.0865 15.8312 20.0391 15.7468 19.9547C15.6624 19.8703 15.615 19.7558 15.615 19.6365V15.0403C15.615 14.921 15.6624 14.8065 15.7468 14.7222C15.8312 14.6378 15.9456 14.5904 16.065 14.5904H16.3166C16.3761 14.5898 16.4352 14.601 16.4904 14.6234C16.5455 14.6457 16.5958 14.6788 16.6381 14.7206C16.6805 14.7624 16.7142 14.8122 16.7373 14.867C16.7604 14.9219 16.7725 14.9808 16.7727 15.0403Z" fill="#7B7B7B"/>
<path d="M22.1155 15.1652V19.4872C22.1155 19.6427 22.0552 19.7921 21.9472 19.9039C21.8392 20.0158 21.692 20.0812 21.5366 20.0865C21.391 20.0842 21.2515 20.0273 21.1459 19.927C21.1255 19.9106 20.3523 18.9043 19.6957 18.0575C19.2048 17.4254 18.7793 16.8731 18.7793 16.8731V19.5097C18.7797 19.6215 18.7475 19.7309 18.6867 19.8247C18.6258 19.9184 18.539 19.9924 18.4367 20.0375C18.3345 20.0826 18.2214 20.097 18.1111 20.0788C18.0008 20.0607 17.8982 20.0107 17.8159 19.9352C17.7565 19.8814 17.7091 19.8157 17.6767 19.7424C17.6443 19.6691 17.6276 19.5899 17.6277 19.5097V15.1897C17.6258 15.0379 17.6823 14.891 17.7854 14.7795C17.8885 14.668 18.0305 14.6003 18.182 14.5904C18.2678 14.589 18.3528 14.6066 18.431 14.642C18.5092 14.6774 18.5785 14.7296 18.6341 14.795C18.6586 14.8236 19.8471 16.37 20.5159 17.2495C20.7818 17.5931 20.9659 17.8345 20.9659 17.8345V15.1754C20.967 15.0233 21.0279 14.8777 21.1354 14.7702C21.243 14.6626 21.3886 14.6017 21.5407 14.6006C21.6914 14.6006 21.836 14.6598 21.9435 14.7654C22.051 14.8709 22.1128 15.0145 22.1155 15.1652Z" fill="#7B7B7B"/>
<path d="M24.1364 17.9122V18.9349H25.8607C25.9392 18.9302 26.0178 18.9417 26.0917 18.9685C26.1657 18.9953 26.2333 19.037 26.2906 19.0909C26.3478 19.1448 26.3934 19.2099 26.4246 19.2821C26.4558 19.3543 26.4718 19.4321 26.4718 19.5107C26.4718 19.5894 26.4558 19.6672 26.4246 19.7394C26.3934 19.8116 26.3478 19.8766 26.2906 19.9306C26.2333 19.9845 26.1657 20.0261 26.0917 20.053C26.0178 20.0798 25.9392 20.0912 25.8607 20.0865H23.5534C23.4008 20.086 23.2546 20.025 23.1469 19.9168C23.0391 19.8087 22.9786 19.6623 22.9786 19.5097V15.1652C22.9792 15.0129 23.0399 14.867 23.1476 14.7593C23.2553 14.6516 23.4011 14.5909 23.5534 14.5904H25.8545C25.933 14.5857 26.0117 14.5971 26.0856 14.6239C26.1595 14.6508 26.2272 14.6924 26.2844 14.7463C26.3417 14.8003 26.3873 14.8653 26.4184 14.9375C26.4496 15.0097 26.4657 15.0875 26.4657 15.1662C26.4657 15.2448 26.4496 15.3226 26.4184 15.3948C26.3873 15.467 26.3417 15.5321 26.2844 15.586C26.2272 15.6399 26.1595 15.6816 26.0856 15.7084C26.0117 15.7352 25.933 15.7466 25.8545 15.742H24.1364V16.7647H25.8607C26.0131 16.7647 26.1593 16.8253 26.2671 16.933C26.3749 17.0408 26.4355 17.187 26.4355 17.3395C26.4355 17.4919 26.3749 17.6381 26.2671 17.7459C26.1593 17.8537 26.0131 17.9142 25.8607 17.9142L24.1364 17.9122Z" fill="#7B7B7B"/>
</g>
<defs>
<clipPath id="clip0_153_38">
<rect width="36" height="36" fill="white"/>
</clipPath>
</defs>
</svg>
