<svg width="36" height="36" viewBox="0 0 36 36" fill="none" xmlns="http://www.w3.org/2000/svg">
<path d="M13.5 9H22.5C23.49 9 24.3 9.81 24.3 10.8V25.2C24.3 26.19 23.49 27 22.5 27H13.5C12.51 27 11.7 26.19 11.7 25.2V10.8C11.7 9.81 12.51 9 13.5 9Z" fill="#D9D9D9"/>
<path fill-rule="evenodd" clip-rule="evenodd" d="M13.5 11.9033C13.5 11.351 13.9477 10.9033 14.5 10.9033H21.5C22.0523 10.9033 22.5 11.351 22.5 11.9033V22.4033C22.5 22.9556 22.0523 23.4033 21.5 23.4033H14.5C13.9477 23.4033 13.5 22.9556 13.5 22.4033V11.9033Z" fill="#7B7B7B"/>
<circle cx="18" cy="25.25" r="1" fill="#7B7B7B"/>
</svg>
